<svg width="1395" height="816" viewBox="0 0 1395 816" fill="none" xmlns="http://www.w3.org/2000/svg">
<path d="M1083.69 562.756C1086.59 560.481 1089.52 558.247 1092.38 555.919C1110.18 541.401 1130.02 530.593 1151.79 523.363C1162.78 519.709 1173.95 516.568 1185 513.082C1190.88 511.229 1196.76 509.313 1202.51 507.116C1209.44 504.471 1216.17 501.378 1221.71 496.223C1222.24 495.726 1222.88 495.313 1223.53 494.976C1224.72 494.355 1226.06 494.316 1226.94 495.319C1227.7 496.171 1228.56 497.456 1228.43 498.434C1228.19 500.342 1227.44 502.23 1226.66 504.025C1222.6 513.435 1216.58 521.523 1209.63 528.97C1202.2 536.934 1193.86 543.883 1185.39 550.711C1174.96 559.128 1165.64 568.59 1158.37 579.953C1154.35 586.245 1151.2 592.925 1149.61 600.223C1148.92 603.322 1148.52 606.57 1148.6 609.735C1148.73 615.559 1151.65 618.802 1157.34 619.98C1164.61 621.488 1171.19 619.675 1176.61 614.82C1180.44 611.389 1184.02 607.508 1187.01 603.326C1191.31 597.3 1195.25 591.031 1198.83 584.551C1203.71 575.699 1208.09 566.567 1212.7 557.566C1220.36 542.6 1228.75 528.083 1239.54 515.1C1260.17 490.29 1284.88 470.532 1313.54 455.708C1325.21 449.666 1337.68 445.74 1350.2 441.94C1357.52 439.722 1364.88 437.633 1372.13 435.197C1377.79 433.296 1383.55 432.314 1389.44 431.551C1396.04 430.699 1402.57 429.329 1409.11 428.151C1409.83 428.024 1410.53 427.727 1411.21 427.423C1412.39 426.896 1413.55 426.033 1413.08 424.676C1412.73 423.644 1411.77 422.52 1410.79 422.09C1409.78 421.652 1408.4 421.836 1407.23 422.043C1401.4 423.06 1395.58 424.144 1389.78 425.294C1386.83 425.882 1384.62 425.151 1382.56 422.836C1372.46 411.481 1370.04 398.613 1374.54 384.257C1376.95 376.582 1381.3 370.023 1386.28 363.851C1398.93 348.184 1414.27 336.111 1433.18 328.8C1441.01 325.777 1448.79 322.672 1456.54 319.431C1461.77 317.243 1466.95 314.915 1472.01 312.357C1480.82 307.9 1486.3 300.436 1489.96 291.5C1491.98 286.552 1492.1 281.453 1491.12 276.226C1490.06 270.657 1489.33 265.036 1488.31 259.462C1486.93 251.915 1488.37 244.769 1491.04 237.744C1494.35 229.072 1499.43 221.556 1505.97 215.018C1518.09 202.89 1531.56 192.6 1546.91 184.812C1554.83 180.791 1562.7 176.662 1570.48 172.378C1584.38 164.727 1597.11 155.373 1609.17 145.133C1620.57 135.453 1629.68 123.809 1637.24 110.953C1638.73 108.416 1639.6 105.521 1641.02 102.939C1641.83 101.488 1643.03 100.169 1644.31 99.1072C1645.64 97.9976 1648.04 98.9881 1648.5 100.668C1648.75 101.613 1648.89 102.597 1649.01 103.568C1651.03 119.361 1650.83 135.103 1647.09 150.623C1642.16 171.034 1631.64 188.426 1617.31 203.559C1611.37 209.828 1605.06 215.754 1598.9 221.81C1592.54 228.057 1586.73 234.767 1581.87 242.251C1580.26 244.726 1578.66 247.256 1577.46 249.939C1573.04 259.857 1573.12 269.428 1579.55 278.702C1584.6 286.002 1589.37 293.506 1593.97 301.099C1598.59 308.722 1602.1 316.863 1604.26 325.567C1607.69 339.341 1607.34 352.918 1602.52 366.328C1593.83 390.473 1578.39 409.129 1556.54 422.463C1553.63 424.238 1550.34 425.535 1547.05 426.488C1529.75 431.505 1512.32 435.935 1494.46 438.541C1491.8 438.929 1489.15 439.628 1486.6 440.469C1485.93 440.689 1485.18 442.038 1485.27 442.774C1485.37 443.513 1486.4 444.667 1487.1 444.72C1490.01 444.958 1493.04 445.295 1495.89 444.792C1505.35 443.11 1514.78 441.233 1524.17 439.164C1530.67 437.74 1537.08 435.928 1543.52 434.218C1545.93 433.576 1547.98 434.023 1549.48 435.997C1551.41 438.532 1553.62 440.984 1554.96 443.823C1561 456.624 1562.17 469.793 1557.46 483.359C1554.1 493.071 1549.11 501.739 1542.04 509.212C1535.23 516.41 1527.83 522.96 1519.74 528.644C1502.96 540.405 1486.05 551.972 1469.26 563.716C1461.58 569.09 1453.95 574.543 1446.49 580.226C1439.6 585.471 1433.35 591.452 1427.64 597.967C1423.05 603.19 1419.21 608.902 1416.25 615.207C1413.88 620.251 1413.31 625.538 1413.4 631.06C1413.49 637.305 1420.32 643.79 1427.75 642.93C1430.66 642.595 1433.6 641.814 1436.32 640.719C1449 635.625 1460.82 628.976 1471.03 619.823C1474.86 616.383 1478.15 612.316 1481.62 608.492C1482.78 607.216 1483.7 605.718 1484.87 604.458C1487.31 601.842 1490.5 602.406 1491.94 605.791C1492.71 607.608 1493.24 609.514 1493.53 611.464C1495.71 626.215 1492.68 639.915 1484.91 652.587C1479.45 661.516 1472.6 669.27 1464.24 675.592C1459.52 679.162 1454.59 682.446 1449.71 685.794C1443.59 689.981 1437.37 693.991 1431.34 698.278C1426.08 702.002 1421.62 706.742 1418.22 712.219C1415.18 717.109 1413.25 722.339 1412.86 728.176C1412.36 735.824 1410.76 743.295 1408.64 750.669C1407.39 755.027 1405.38 758.983 1402.38 762.302C1398.91 766.139 1395.15 769.705 1391.46 773.35C1389.06 775.731 1386.11 776.643 1382.73 776.692C1369.64 776.873 1356.56 777.294 1343.48 777.4C1318.04 777.6 1292.6 777.612 1267.17 777.767C1231.37 777.98 1195.56 778.239 1159.76 778.495C1124.45 778.745 1089.14 779.009 1053.84 779.282C1019.26 779.548 984.696 779.84 950.125 780.093C918.025 780.33 885.925 780.522 853.825 780.76C815.304 781.046 776.786 781.365 738.265 781.655C702.464 781.922 666.658 782.165 630.853 782.429C595.789 782.69 560.729 782.973 525.664 783.23C490.356 783.486 455.043 783.713 419.734 783.967C383.929 784.227 348.128 784.499 312.322 784.771C277.755 785.037 243.183 785.325 208.616 785.578C176.268 785.814 143.923 785.995 111.58 786.226C72.3162 786.509 33.0586 786.792 -6.20387 787.126C-34.349 787.366 -62.4979 787.698 -90.644 787.946C-93.607 787.968 -96.569 787.823 -99.5158 787.513C-100.979 787.354 -102.393 786.895 -103.671 786.165C-106.937 784.264 -107.23 779.776 -104.306 777.407C-103.36 776.642 -102.227 776.103 -101.159 775.505C-82.2478 764.876 -67.0956 750.338 -55.769 731.846C-49.0565 720.887 -43.6093 709.255 -38.1232 697.665C-36.1276 693.454 -34.8498 688.893 -33.357 684.449C-18.6349 640.642 2.48484 600.074 28.5171 561.962C41.8907 542.38 55.7971 523.231 71.3426 505.285C86.0918 488.262 102.386 472.849 119.211 457.927C148.509 431.94 181.924 412.621 217.495 396.736C221.548 394.927 225.687 393.306 229.809 391.658C245.152 385.519 260.593 379.612 275.831 373.225C293.363 365.883 310.43 357.533 327.31 348.794C336.192 344.198 343.593 337.715 350.917 331.069C364.567 318.686 375.495 304.119 385.406 288.697C394.47 274.576 403.603 260.499 412.804 246.467C421.785 232.779 432.593 220.603 444.429 209.338C447.638 206.286 451.094 203.446 454.678 200.842C466.484 192.27 478.917 184.72 492.064 178.354C507.186 171.031 522.798 164.92 538.68 159.472C546.845 156.67 554.97 153.751 563.168 151.054C574.718 147.258 585.6 142.055 596.014 135.852C606.148 129.815 614.698 122.173 620.378 111.618C623.067 106.622 626.063 101.795 628.773 96.8106C639.271 77.4827 653.233 60.951 669.781 46.6124C686.287 32.3116 705.512 22.9981 726.443 17.0928C733.8 15.0131 741.281 13.3993 748.842 12.2614C755.656 11.2379 762.393 9.59289 769.075 7.88493C772.449 7.02417 774.833 8.12021 777.029 10.3539C778.158 11.5061 777.851 14.2153 776.392 14.9172C774.86 15.654 773.211 16.265 771.549 16.5816C748.915 20.8883 730.512 32.8431 713.99 48.2332C706.83 54.9044 701.644 62.9678 697.495 71.7265C692.514 82.2348 688.576 93.0625 686.437 104.578C684.592 114.514 681.921 124.291 678.343 133.773C673.498 146.608 666.073 157.905 657.593 168.601C648.247 180.394 636.864 189.724 623.63 196.763C614.921 201.393 606.003 205.627 597.173 210.024C588.562 214.316 579.901 218.506 571.341 222.898C564.92 226.191 559.313 230.647 554.293 235.813C552.747 237.4 551.347 239.133 549.928 240.84C543.818 248.217 541.961 256.558 544.458 265.806C546.462 273.208 547.135 280.907 546.444 288.543C545.267 301.832 539.834 312.693 528.244 319.954C525.529 321.655 522.737 323.239 519.979 324.874C515.52 327.506 510.967 329.997 506.622 332.81C503.695 334.707 500.691 336.179 497.356 337.275C486.949 340.696 477.376 345.77 469.066 352.979C466.661 355.065 464.593 357.556 462.49 359.964C461.877 360.663 461.371 361.72 461.366 362.616C461.36 363.459 461.924 364.456 462.535 365.095C462.943 365.521 464.108 365.814 464.54 365.541C467.024 363.968 469.576 362.416 471.754 360.466C476.763 355.986 482.31 352.35 488.222 349.226C489.09 348.769 490.018 348.425 490.946 348.093C491.979 347.723 492.226 348.55 492.268 349.227C493.381 367.122 486.111 381.42 472.875 392.837C467.287 397.655 461.072 401.766 455.012 406.012C446.926 411.675 438.623 417.032 431.252 423.658C423.852 430.309 417.524 437.839 412.413 446.37C410.244 449.99 408.465 453.767 408.437 458.144C408.412 461.971 410.427 464.854 414.182 465.637C416.064 466.03 418.111 466.093 420.016 465.829C424.942 465.153 429.547 463.328 434.048 461.283C459.207 449.851 479.339 432.55 494.461 409.439C497.431 404.894 500.362 400.317 503.109 395.64C515.99 373.7 532.446 354.841 551.778 338.355C562.506 329.206 573.481 320.448 585.605 313.203C586.866 312.448 588.092 311.44 589.467 311.13C590.479 310.9 592.07 311.279 592.733 312.001C593.404 312.737 593.517 314.255 593.375 315.371C593.268 316.244 592.496 317.108 591.849 317.816C590.851 318.906 589.752 319.912 588.618 320.864C579.032 328.897 571.784 338.859 565.131 349.296C560.183 357.059 556.7 365.492 554.519 374.412C552.298 383.509 550.367 392.678 548.336 401.824C546.568 409.794 544.171 417.548 540.791 424.992C537.076 433.171 531.971 440.371 525.837 446.902C519.482 453.666 511.943 458.686 503.509 462.453C495.625 465.973 487.723 469.458 479.895 473.099C477.222 474.341 474.665 475.881 472.219 477.526C471.051 478.314 470.063 479.559 469.383 480.81C468.996 481.52 469.075 482.888 469.535 483.54C469.986 484.176 471.335 484.743 472.04 484.526C474.615 483.727 477.116 482.667 479.58 481.566C483.856 479.654 488.08 477.624 492.338 475.671C492.745 475.486 493.371 475.301 493.663 475.484C493.955 475.667 494.167 476.372 494.061 476.747C490.346 489.779 486.56 502.786 482.841 515.816C478.476 531.122 469.465 543.148 456.908 552.69C450.002 557.936 442.704 562.632 434.683 565.892C428.777 568.292 422.573 570.105 416.356 571.587C397.358 576.109 378.182 579.437 358.53 579.044C356.368 579.003 354.175 579.525 352.039 579.998C351.523 580.111 350.903 581.03 350.848 581.623C350.798 582.213 351.255 583.059 351.76 583.434C352.517 583.997 353.486 584.477 354.409 584.578C358.32 585.014 362.207 585.421 366.193 585.309C380.559 584.898 394.682 582.73 408.708 579.856C411.588 579.265 413.506 580.066 415.257 582.009C417.985 585.026 419.642 588.509 419.89 592.645C420.226 598.181 419.376 603.437 416.842 608.432C414.141 613.77 410.815 618.684 406.396 622.692C400.552 627.996 394.465 633.033 388.46 638.158C384.515 641.518 380.448 644.742 376.576 648.187C371.384 652.803 366.785 657.979 363.372 664.059C360.242 669.641 358.917 675.535 361.305 681.825C362.949 686.151 365.537 689.746 369.894 691.508C373.058 692.787 376.438 694.115 379.783 694.29C402.524 695.487 422.664 688.906 439.471 673.244C445.155 667.945 449.208 661.385 451.789 654.104C454.585 646.211 456.878 638.14 459.349 630.136C461.385 623.54 463.128 616.847 465.418 610.342C471.14 594.092 480.048 579.689 491.241 566.618C511.7 542.731 537.089 525.59 565.246 512.181C580.633 506.808 593.786 497.627 606.372 487.635C611.954 483.204 616.868 477.933 622.067 473.025C623.142 472.01 624.071 470.846 625.188 469.885C626.199 469.015 628.247 469.082 629.386 469.856C630.512 470.621 630.854 471.771 630.856 473.055C630.856 473.543 630.843 474.057 630.7 474.521C627.147 486.314 624.251 498.333 618.013 509.163C611.833 519.886 604.976 530.093 596.737 539.373C592.481 544.167 588.424 549.15 584.473 554.199C576.17 564.822 572.108 577.04 570.821 590.379C570.208 596.744 569.083 603.075 567.888 609.364C565.234 623.318 558.656 635.295 549.007 645.633C547.154 647.618 545.19 649.495 543.323 651.467C543.023 651.785 542.955 652.328 542.782 652.767C543.217 652.865 543.716 653.143 544.081 653.026C546.421 652.258 548.828 651.604 551.031 650.541C562.423 645.046 572.998 638.289 582.511 629.908C601.833 612.892 615.537 592.107 624.346 567.998C631.37 548.77 638.29 529.504 645.463 510.334C652.12 492.544 659.005 474.836 667.995 458.042C674.762 445.398 682.438 433.332 690.957 421.803C704.02 404.121 720.031 389.597 738.554 377.826C746.05 373.065 753.574 368.294 761.39 364.103C767.025 361.081 770.54 356.7 772.468 350.889C773.627 347.391 774.474 343.773 775.215 340.155C780.925 312.427 793.497 288.158 812.337 267.151C823.639 254.547 836.753 244.154 852.106 236.774C858.998 233.461 865.92 230.206 872.829 226.922C877.063 224.91 881.313 222.927 885.524 220.872C893.825 216.828 901.061 211.349 907.502 204.748C912.38 199.746 916.425 194.216 919.182 187.775C920.831 183.92 922.615 180.121 924.21 176.245C930.896 159.973 941.166 146.262 953.9 134.257C976.074 113.358 1001.91 99.0191 1031.24 90.9082C1038.89 88.7926 1046.69 87.7062 1054.62 87.4409C1058.06 87.3248 1061.49 86.7874 1064.94 86.5502C1068.38 86.311 1071.83 86.2665 1075.28 86.0273C1078.99 85.7756 1081.23 87.9667 1083.2 90.6197C1084.19 91.9452 1083.79 94.3183 1082.26 95.1975C1080.35 96.2906 1078.32 97.1785 1076.26 97.986C1070.75 100.152 1065.09 101.969 1059.71 104.391C1039.69 113.392 1021.99 125.791 1006.25 141.066C995.226 151.765 987.263 164.326 982.477 178.919C978.941 189.697 975.599 200.545 971.724 211.2C966.121 226.607 957.981 240.718 948.242 253.857C937.619 268.19 923.877 279.046 908.253 287.363C899.323 292.115 893.937 299.065 891.193 308.554C888.362 318.341 887.061 328.322 886.941 338.475C886.873 344.154 886.915 349.832 886.838 355.506C886.793 358.713 886.642 361.917 886.474 365.122C886.171 370.891 884.492 376.216 881.58 381.231C874.091 394.132 865.035 405.798 854.083 415.92C845.74 423.635 836.921 430.806 827.429 437.078C823.319 439.792 818.916 442.059 814.709 444.635C813.268 445.518 811.942 446.64 810.752 447.84C810.388 448.205 810.422 449.303 810.692 449.865C810.962 450.428 811.738 451.061 812.319 451.09C813.511 451.143 814.841 451.082 815.894 450.594C819.686 448.829 823.539 447.114 827.088 444.927C838.473 437.907 848.76 429.427 858.677 420.492C859.778 419.5 860.849 418.477 861.89 417.422C863.21 416.086 864.812 415.737 866.623 415.831C871.759 416.102 876.238 417.934 879.989 421.443C884.215 425.395 887.226 430.131 889.102 435.617C892.221 444.713 892.469 454.004 890.91 463.377C888.794 476.143 884.106 488.058 878.65 499.715C870.333 517.472 859.422 533.601 847.554 549.114C842.457 555.775 837.123 562.258 831.892 568.824C827.869 573.874 823.111 578.179 818.094 582.198C808.069 590.229 797.711 597.796 786.575 604.25C783.8 605.859 781.132 607.649 778.456 609.417C777.647 609.949 776.835 610.596 776.298 611.378C775.948 611.887 775.805 612.885 776.083 613.383C776.378 613.92 777.296 614.468 777.89 614.418C779.337 614.292 780.859 614.048 782.164 613.444C785.517 611.893 788.94 610.384 792.028 608.385C799.686 603.42 807.543 598.652 814.602 592.917C819.906 588.601 825.341 588.36 831.238 589.634C839.312 591.375 843.738 597.538 843.296 605.876C843.043 610.634 841.412 615.025 839.386 619.283C834.889 628.718 828.779 637.084 822.004 644.96C817.014 650.757 811.795 656.36 806.546 661.928C801.975 666.776 797.131 671.369 792.592 676.25C790.564 678.43 787.446 679.886 787.172 683.42C790.297 683.924 792.843 682.199 795.56 681.205C803.034 678.476 809.917 674.574 816.279 669.871C825.208 663.272 833.929 656.383 842.751 649.64C852.767 641.988 863.056 634.741 874.543 629.404C878.118 627.742 881.765 626.211 885.476 624.897C888.017 623.996 890.698 623.267 893.37 623.018C898.276 622.562 902.603 623.736 905.599 628.227C907.846 631.598 908.005 631.487 910.374 628.101C915.394 620.91 918.678 612.974 920.268 604.375C921.882 595.649 923.251 586.88 924.869 578.154C928.049 561.023 934.135 544.925 942.578 529.722C945.451 524.548 948.615 519.53 951.766 514.517C965.191 493.154 983.204 476.564 1005.15 464.303C1017.85 457.205 1030.88 450.686 1043.8 443.995C1058.7 436.282 1073.75 428.853 1088.55 420.948C1104.48 412.435 1119.36 402.276 1133.17 390.595C1135.6 388.53 1137.84 386.222 1140.14 384.01C1140.31 383.857 1140.48 383.523 1140.41 383.381C1140.33 383.205 1140.02 383.052 1139.78 383.041C1139.31 383.011 1138.8 383.007 1138.33 383.121C1131.99 384.653 1125.58 384.208 1119.17 383.94C1118.43 383.908 1117.69 383.838 1116.96 383.709C1103.38 381.297 1097.36 371.355 1098.46 360.163C1098.94 355.204 1100.37 350.517 1102.43 345.984C1106.79 336.348 1113.63 328.616 1121.17 321.421C1129.24 313.725 1138.15 307.087 1147.52 301.099C1157.71 294.589 1168.1 288.369 1178.21 281.75C1186.26 276.488 1194.25 271.074 1201.9 265.25C1210.96 258.35 1219.14 250.472 1225.6 240.971C1227.99 237.471 1229.87 233.768 1230.92 229.649C1237.28 204.936 1250.15 183.835 1267.04 165.024C1279.64 150.99 1294.1 139.097 1309.64 128.441C1325.13 117.811 1341.56 108.755 1357.98 99.6785C1372.45 91.6828 1387.02 83.8333 1401.16 75.2886C1417.08 65.6644 1431.33 53.8577 1443.53 39.7176C1449.37 32.9661 1454.46 25.6976 1458.69 17.8481C1460.41 14.6432 1462.18 11.419 1461.13 7.3737C1460.52 5.0509 1462.26 3.18899 1463.87 1.61851C1465.21 0.307518 1468.22 1.0366 1468.91 2.81525C1469.25 3.71764 1469.52 4.70524 1469.55 5.66864C1469.74 10.107 1469.86 14.5474 1469.96 18.9867C1470.16 28.2275 1468.23 37.1024 1465.44 45.8552C1460.09 62.6706 1452.13 78.2108 1442.68 93.048C1434.04 106.62 1424.07 119.163 1413.33 131.119C1397.97 148.217 1381.33 164.038 1364.66 179.834C1358.39 185.773 1352.32 191.913 1346.29 198.105C1336.07 208.626 1329.86 221.417 1325.85 235.36C1324.21 241.043 1322.79 246.791 1321.38 252.539C1316.01 274.582 1305.17 293.707 1290.57 310.905C1281.26 321.872 1270.99 331.762 1259.37 340.282C1255.75 342.946 1251.91 344.98 1247.52 346.101C1235.81 349.092 1224.2 352.464 1212.11 353.639C1210.69 353.777 1209.26 354.399 1207.95 355.045C1207.44 355.297 1206.98 356.231 1207 356.833C1207.03 357.447 1207.55 358.34 1208.08 358.58C1209.16 359.063 1210.4 359.331 1211.61 359.431C1217.59 359.933 1223.39 358.544 1229.18 357.332C1233.76 356.373 1238.28 355.116 1242.81 353.93C1244.86 353.396 1246.64 353.71 1248.4 354.942C1258.51 362.002 1264.34 371.628 1265.58 383.883C1266.93 397.193 1264.69 409.922 1258.92 422.031C1253.01 434.432 1244.76 445.143 1235.25 454.942C1226.98 463.474 1217.83 471.002 1208.23 477.982C1193.82 488.456 1178.47 497.393 1162.66 505.551C1152.13 510.982 1141.56 516.302 1131.11 521.901C1117.57 529.173 1104.91 537.731 1094.21 548.908C1090.99 552.289 1088.04 555.961 1085.12 559.613C1084.4 560.503 1084.25 561.842 1083.85 562.978C1083.65 563.115 1083.47 563.25 1083.28 563.387C1083.43 563.15 1083.57 562.955 1083.69 562.756V562.756Z" fill="#8B83F6"/>
<path d="M1040.09 268.213C1037.38 268.197 1034.66 268.151 1031.95 268.169C1030.23 268.179 1028.45 268.062 1026.8 268.425C1025.74 268.657 1024.66 269.499 1023.95 270.368C1023.29 271.172 1024.82 272.895 1026.59 273.309C1033.38 274.892 1040.23 275.25 1047.17 274.6C1056.51 273.725 1065.78 272.438 1074.92 270.356C1076.53 269.99 1077.84 270.148 1079.07 271.131C1085.68 276.423 1090.65 282.814 1090.73 291.644C1090.77 295.76 1089.96 299.988 1088.9 303.995C1086.93 311.465 1083.02 318.067 1078.67 324.398C1071.46 334.895 1062.33 343.474 1052.14 351.015C1041.61 358.815 1030.4 365.513 1018.87 371.739C1004.77 379.361 990.673 387 976.645 394.77C972.334 397.157 968.283 400.002 964.106 402.628C946.487 413.709 934.857 429.536 927.501 448.75C926.708 450.819 926.017 452.933 925.142 454.965C924.538 456.363 922.918 457.078 921.463 456.846C920.013 456.614 918.706 455.412 918.685 453.83C918.626 449.642 918.33 445.394 918.874 441.269C920.068 432.235 921.221 423.143 923.285 414.283C928.994 389.754 939.983 368.014 958.449 350.403C970.62 338.793 984.667 330.414 1000.65 325.205C1003.46 324.29 1006.26 323.341 1009.03 322.284C1010.4 321.763 1011.79 321.137 1012.92 320.223C1013.52 319.734 1013.75 318.529 1013.71 317.666C1013.7 317.245 1012.66 316.496 1012.12 316.53C1009.45 316.69 1006.68 316.717 1004.13 317.44C999.866 318.641 995.739 320.311 991.574 321.83C989.723 322.506 987.854 323.182 986.091 324.051C984.085 325.039 982.322 324.683 980.482 323.7C969.118 317.647 962.76 308.447 962.124 295.383C961.317 278.866 967.581 265.052 978.089 252.862C987.544 241.893 999.082 233.496 1011.54 226.266C1023.76 219.185 1036.82 213.999 1049.84 208.691C1056.69 205.901 1063.53 203.084 1070.35 200.213C1079.02 196.562 1087.21 192.03 1094.85 186.522C1100.91 182.155 1106.13 176.957 1110.62 171.015C1116 163.922 1120.82 156.488 1125.04 148.638C1129.13 141.029 1133.45 133.557 1138.75 126.691C1148.84 113.592 1161.57 103.531 1175.66 95.1259C1186.69 88.5467 1198.02 82.5708 1210.41 78.8595C1211.59 78.509 1212.74 77.9823 1213.93 77.7877C1216.78 77.3229 1219.25 80.1696 1218.39 82.9745C1217.96 84.363 1217.3 85.7572 1216.44 86.922C1214.69 89.2971 1212.83 91.6189 1210.81 93.7859C1195.73 110.019 1183.63 128.24 1174.67 148.486C1171.59 155.46 1169.15 162.723 1166.49 169.887C1165.29 173.121 1164.33 176.441 1163.21 179.703C1155.63 201.672 1142.89 220.151 1125.35 235.319C1117.5 242.095 1109.46 248.638 1100.71 254.247C1096.1 257.197 1091.22 259.425 1085.95 260.932C1070.94 265.207 1055.76 268.246 1040.09 268.213V268.213ZM574.003 416.922C573.175 416.76 572.695 416.675 572.218 416.569C570.784 416.249 569.85 414.215 570.729 413.055C571.45 412.102 572.309 411.131 573.324 410.559C574.59 409.846 576.047 409.279 577.481 409.081C583.337 408.281 587.215 404.584 590.696 400.313C597.105 392.462 602.621 383.975 607.583 375.172C613.266 365.087 618.573 354.787 623.999 344.558C631.403 330.601 639.615 317.166 649.145 304.535C665.415 282.967 685.209 265.47 708.919 252.468C715.183 249.033 721.479 245.627 727.936 242.575C734.464 239.488 740.383 235.589 745.807 230.869C746.919 229.904 748.061 228.956 749.283 228.143C750.583 227.277 752.572 227.522 753.231 228.793C753.745 229.781 753.936 231.115 753.768 232.218C753.636 233.087 752.843 233.948 752.154 234.626C748.661 238.081 745.223 241.51 741.081 244.333C731.833 250.633 724.133 258.663 717.857 267.918C714.121 273.421 710.707 279.136 707.632 285.034C701.946 295.96 696.553 307.04 691.172 318.123C682.962 335.037 673.233 350.992 661.514 365.713C651.763 377.959 640.355 388.409 627.392 397.172C620.62 401.751 613.403 405.526 605.659 408.105C597.49 410.827 589.196 413.183 580.924 415.582C578.567 416.261 576.096 416.526 574.003 416.922V416.922ZM-22.4304 766.31H1421.01V908.641H-22.4304V766.31Z" fill="#8B83F6"/>
<path d="M1084.02 563.256C1086.91 560.978 1089.85 558.743 1092.7 556.413C1110.5 541.883 1130.34 531.066 1152.11 523.831C1163.1 520.174 1174.27 517.03 1185.33 513.542C1191.21 511.687 1197.08 509.769 1202.83 507.571C1209.76 504.923 1216.49 501.828 1222.03 496.669C1222.57 496.172 1223.21 495.758 1223.85 495.421C1225.05 494.8 1226.38 494.76 1227.26 495.764C1228.02 496.617 1228.88 497.903 1228.76 498.882C1228.51 500.791 1227.76 502.681 1226.98 504.478C1222.92 513.895 1216.9 521.989 1209.95 529.442C1202.52 537.412 1194.18 544.367 1185.71 551.2C1175.28 559.625 1165.96 569.094 1158.7 580.466C1154.68 586.763 1151.53 593.448 1149.93 600.752C1149.24 603.853 1148.84 607.104 1148.92 610.272C1149.06 616.101 1151.97 619.346 1157.66 620.525C1164.93 622.034 1171.51 620.22 1176.94 615.361C1180.76 611.927 1184.34 608.043 1187.33 603.858C1191.63 597.827 1195.58 591.554 1199.15 585.068C1204.03 576.208 1208.41 567.07 1213.02 558.061C1220.69 543.083 1229.08 528.555 1239.87 515.561C1260.49 490.731 1285.21 470.958 1313.86 456.122C1325.53 450.075 1338 446.146 1350.53 442.343C1357.84 440.123 1365.2 438.033 1372.45 435.595C1378.11 433.692 1383.87 432.709 1389.76 431.945C1396.36 431.093 1402.89 429.721 1409.43 428.543C1410.15 428.415 1410.85 428.119 1411.53 427.814C1412.71 427.287 1413.87 426.423 1413.4 425.065C1413.05 424.032 1412.09 422.907 1411.11 422.477C1410.11 422.038 1408.72 422.222 1407.55 422.43C1401.72 423.448 1395.9 424.532 1390.1 425.684C1387.16 426.272 1384.95 425.54 1382.88 423.223C1372.78 411.86 1370.36 398.982 1374.86 384.614C1377.28 376.933 1381.62 370.369 1386.6 364.191C1399.26 348.512 1414.59 336.429 1433.5 329.112C1441.33 326.087 1449.12 322.979 1456.86 319.736C1462.09 317.546 1467.27 315.217 1472.33 312.657C1481.14 308.196 1486.62 300.726 1490.28 291.783C1492.3 286.831 1492.42 281.728 1491.44 276.496C1490.39 270.923 1489.65 265.297 1488.63 259.72C1487.26 252.166 1488.69 245.014 1491.36 237.984C1494.68 229.304 1499.75 221.783 1506.29 215.239C1518.41 203.102 1531.89 192.804 1547.23 185.009C1555.16 180.986 1563.02 176.853 1570.8 172.566C1584.7 164.909 1597.43 155.547 1609.49 145.299C1620.9 135.611 1630 123.958 1637.56 111.091C1639.05 108.552 1639.92 105.655 1641.35 103.071C1642.15 101.619 1643.35 100.299 1644.63 99.2364C1645.97 98.1259 1648.36 99.1172 1648.83 100.798C1649.08 101.744 1649.21 102.729 1649.33 103.701C1651.35 119.506 1651.15 135.261 1647.41 150.793C1642.48 171.22 1631.96 188.626 1617.63 203.771C1611.69 210.045 1605.39 215.977 1599.23 222.037C1592.86 228.289 1587.05 235.004 1582.19 242.495C1580.59 244.971 1578.98 247.503 1577.79 250.188C1573.36 260.114 1573.45 269.693 1579.87 278.975C1584.93 286.28 1589.69 293.79 1594.29 301.39C1598.92 309.019 1602.42 317.166 1604.58 325.877C1608.01 339.662 1607.66 353.249 1602.84 366.67C1594.15 390.835 1578.72 409.506 1556.86 422.85C1553.96 424.626 1550.66 425.925 1547.37 426.878C1530.08 431.9 1512.64 436.333 1494.78 438.942C1492.12 439.329 1489.48 440.029 1486.92 440.871C1486.25 441.091 1485.5 442.441 1485.59 443.177C1485.69 443.917 1486.72 445.072 1487.42 445.125C1490.34 445.363 1493.36 445.7 1496.21 445.197C1505.67 443.514 1515.11 441.635 1524.5 439.565C1531 438.139 1537.4 436.326 1543.84 434.615C1546.25 433.972 1548.3 434.419 1549.8 436.395C1551.74 438.932 1553.95 441.386 1555.28 444.228C1561.32 457.039 1562.49 470.218 1557.78 483.795C1554.42 493.514 1549.43 502.19 1542.36 509.669C1535.55 516.872 1528.16 523.427 1520.06 529.116C1503.28 540.886 1486.38 552.463 1469.59 564.216C1461.91 569.594 1454.27 575.051 1446.81 580.739C1439.92 585.989 1433.68 591.974 1427.96 598.495C1423.38 603.721 1419.53 609.439 1416.58 615.748C1414.2 620.796 1413.63 626.087 1413.72 631.613C1413.82 637.863 1420.65 644.354 1428.08 643.493C1430.98 643.158 1433.92 642.376 1436.64 641.28C1449.32 636.182 1461.14 629.528 1471.35 620.368C1475.19 616.925 1478.47 612.855 1481.94 609.028C1483.1 607.751 1484.02 606.252 1485.19 604.991C1487.64 602.373 1490.82 602.937 1492.27 606.324C1493.03 608.143 1493.56 610.051 1493.85 612.003C1496.03 626.765 1493 640.476 1485.23 653.158C1479.77 662.094 1472.92 669.854 1464.56 676.181C1459.84 679.754 1454.91 683.041 1450.03 686.391C1443.92 690.581 1437.7 694.595 1431.66 698.886C1426.4 702.613 1421.93 707.357 1418.54 712.838C1415.5 717.731 1413.57 722.966 1413.19 728.808C1412.68 736.461 1411.08 743.938 1408.96 751.318C1407.71 755.679 1405.71 759.639 1402.7 762.961C1399.24 766.801 1395.47 770.37 1391.79 774.018C1389.38 776.401 1386.43 777.313 1383.05 777.362C1369.96 777.543 1356.88 777.965 1343.8 778.07C1318.37 778.271 1292.93 778.282 1267.5 778.438C1231.69 778.651 1195.89 778.91 1160.08 779.166C1124.77 779.417 1089.46 779.681 1054.16 779.954C1019.58 780.22 985.019 780.512 950.448 780.766C918.348 781.003 886.248 781.195 854.148 781.434C815.627 781.72 777.109 782.038 738.588 782.329C702.787 782.596 666.981 782.84 631.176 783.103C596.112 783.365 561.052 783.648 525.987 783.906C490.679 784.161 455.366 784.388 420.057 784.643C384.252 784.903 348.451 785.175 312.645 785.447C278.078 785.714 243.506 786.002 208.939 786.255C176.591 786.491 144.246 786.672 111.903 786.904C72.6391 787.187 33.3815 787.471 -5.88093 787.804C-34.026 788.044 -62.175 788.377 -90.3211 788.625C-93.2841 788.647 -96.246 788.503 -99.1929 788.192C-100.656 788.033 -102.07 787.573 -103.348 786.843C-106.614 784.941 -106.907 780.448 -103.983 778.078C-103.037 777.312 -101.904 776.773 -100.836 776.174C-81.9249 765.537 -66.7727 750.987 -55.4461 732.48C-48.7336 721.512 -43.2863 709.871 -37.8003 698.272C-35.8047 694.057 -34.5269 689.493 -33.034 685.045C-18.3119 641.204 2.80778 600.603 28.84 562.461C42.2136 542.863 56.12 523.699 71.6656 505.738C86.4148 488.702 102.709 473.276 119.534 458.342C148.832 432.335 182.247 413 217.818 397.103C221.871 395.293 226.01 393.67 230.132 392.02C245.475 385.877 260.916 379.965 276.154 373.573C293.686 366.225 310.753 357.869 327.633 349.122C336.515 344.522 343.916 338.035 351.24 331.384C364.89 318.99 375.818 304.412 385.728 288.978C394.793 274.846 403.925 260.757 413.127 246.714C422.108 233.015 432.916 220.829 444.752 209.555C447.961 206.501 451.417 203.659 455.001 201.052C466.807 192.473 479.24 184.917 492.387 178.547C507.509 171.217 523.12 165.102 539.003 159.649C547.168 156.845 555.293 153.923 563.491 151.225C575.041 147.425 585.923 142.219 596.337 136.01C606.471 129.968 615.021 122.321 620.701 111.757C623.39 106.757 626.386 101.926 629.096 96.9379C639.594 77.5945 653.556 61.0497 670.104 46.6996C686.61 32.3874 705.834 23.0665 726.766 17.1565C734.123 15.0751 741.605 13.4607 749.165 12.3212C755.979 11.2969 762.716 9.65057 769.398 7.94124C772.772 7.0798 775.156 8.17672 777.351 10.4122C778.481 11.5653 778.174 14.2766 776.715 14.9792C775.183 15.7166 773.534 16.328 771.872 16.6449C749.238 20.955 730.835 32.9194 714.313 48.3218C707.153 54.9982 701.967 63.0681 697.818 71.8338C692.837 82.3504 688.899 93.1868 686.76 104.711C684.915 114.655 682.244 124.44 678.666 133.93C673.821 146.775 666.396 158.081 657.916 168.786C648.57 180.588 637.187 189.926 623.953 196.971C615.244 201.603 606.325 205.841 597.496 210.242C588.885 214.537 580.223 218.731 571.664 223.126C565.243 226.422 559.636 230.881 554.615 236.052C553.07 237.64 551.67 239.374 550.251 241.083C544.141 248.466 542.284 256.813 544.781 266.069C546.785 273.477 547.457 281.181 546.767 288.824C545.59 302.123 540.157 312.993 528.567 320.259C525.852 321.962 523.06 323.547 520.302 325.183C515.843 327.818 511.29 330.311 506.945 333.126C504.018 335.024 501.014 336.497 497.679 337.594C487.272 341.018 477.699 346.096 469.389 353.311C466.984 355.399 464.916 357.892 462.813 360.302C462.2 361.001 461.694 362.059 461.689 362.956C461.683 363.799 462.247 364.797 462.858 365.437C463.266 365.863 464.431 366.156 464.863 365.883C467.347 364.309 469.899 362.755 472.077 360.804C477.085 356.32 482.633 352.681 488.545 349.554C489.413 349.097 490.341 348.753 491.269 348.421C492.302 348.051 492.549 348.878 492.591 349.555C493.704 367.466 486.434 381.775 473.198 393.201C467.61 398.022 461.395 402.137 455.335 406.386C447.249 412.054 438.946 417.415 431.575 424.046C424.175 430.702 417.847 438.238 412.736 446.776C410.567 450.399 408.788 454.179 408.76 458.56C408.735 462.39 410.75 465.275 414.505 466.058C416.387 466.452 418.433 466.515 420.339 466.251C425.265 465.575 429.87 463.748 434.371 461.702C459.53 450.261 479.662 432.945 494.784 409.816C497.754 405.268 500.685 400.687 503.432 396.006C516.313 374.048 532.769 355.175 552.101 338.675C562.829 329.519 573.804 320.754 585.927 313.503C587.189 312.748 588.415 311.739 589.79 311.429C590.802 311.198 592.393 311.577 593.056 312.3C593.727 313.036 593.84 314.556 593.698 315.673C593.591 316.546 592.819 317.411 592.172 318.12C591.174 319.211 590.075 320.218 588.941 321.17C579.354 329.209 572.107 339.179 565.454 349.625C560.506 357.394 557.023 365.834 554.842 374.761C552.621 383.865 550.69 393.042 548.659 402.195C546.891 410.171 544.494 417.932 541.114 425.381C537.399 433.566 532.294 440.773 526.16 447.309C519.805 454.078 512.266 459.102 503.832 462.872C495.948 466.395 488.046 469.883 480.217 473.526C477.545 474.77 474.988 476.311 472.542 477.957C471.374 478.746 470.386 479.992 469.706 481.244C469.319 481.955 469.398 483.323 469.858 483.976C470.309 484.613 471.658 485.18 472.363 484.963C474.938 484.163 477.439 483.102 479.903 482C484.179 480.087 488.402 478.056 492.661 476.101C493.068 475.916 493.694 475.73 493.986 475.913C494.278 476.096 494.49 476.803 494.383 477.178C490.669 490.22 486.883 503.237 483.164 516.278C478.799 531.596 469.788 543.631 457.231 553.181C450.325 558.431 443.027 563.132 435.006 566.393C429.1 568.795 422.896 570.61 416.679 572.093C397.681 576.619 378.505 579.95 358.852 579.556C356.691 579.516 354.498 580.038 352.362 580.511C351.845 580.624 351.225 581.544 351.171 582.138C351.121 582.728 351.578 583.575 352.083 583.95C352.84 584.513 353.809 584.993 354.732 585.095C358.643 585.531 362.53 585.938 366.516 585.826C380.882 585.415 395.005 583.245 409.031 580.369C411.911 579.777 413.829 580.579 415.58 582.523C418.308 585.543 419.965 589.029 420.213 593.168C420.549 598.709 419.699 603.969 417.165 608.968C414.464 614.31 411.138 619.228 406.719 623.239C400.875 628.547 394.788 633.588 388.783 638.717C384.838 642.081 380.771 645.306 376.899 648.754C371.707 653.374 367.108 658.555 363.695 664.639C360.565 670.225 359.24 676.125 361.628 682.419C363.272 686.749 365.86 690.347 370.217 692.11C373.381 693.391 376.761 694.719 380.106 694.894C402.847 696.092 422.987 689.506 439.793 673.831C445.478 668.529 449.531 661.963 452.112 654.676C454.908 646.776 457.201 638.7 459.672 630.689C461.708 624.088 463.451 617.389 465.74 610.88C471.463 594.617 480.371 580.202 491.563 567.12C512.023 543.215 537.412 526.059 565.569 512.639C580.956 507.262 594.109 498.074 606.695 488.074C612.276 483.64 617.191 478.365 622.39 473.453C623.465 472.437 624.394 471.272 625.511 470.31C626.522 469.439 628.57 469.507 629.709 470.281C630.835 471.047 631.177 472.198 631.179 473.483C631.179 473.971 631.166 474.486 631.023 474.95C627.47 486.752 624.574 498.781 618.336 509.619C612.156 520.351 605.299 530.566 597.06 539.853C592.804 544.652 588.747 549.638 584.796 554.692C576.493 565.323 572.431 577.55 571.144 590.9C570.531 597.271 569.406 603.606 568.211 609.901C565.557 623.865 558.979 635.852 549.33 646.199C547.477 648.185 545.513 650.063 543.646 652.037C543.346 652.355 543.278 652.899 543.105 653.339C543.54 653.436 544.039 653.715 544.404 653.597C546.743 652.829 549.151 652.174 551.354 651.111C562.746 645.611 573.321 638.849 582.834 630.461C602.156 613.431 615.86 592.629 624.669 568.502C631.693 549.258 638.613 529.977 645.786 510.792C652.443 492.987 659.328 475.265 668.318 458.457C675.084 445.803 682.761 433.728 691.28 422.189C704.343 404.493 720.354 389.958 738.877 378.178C746.373 373.412 753.897 368.638 761.713 364.443C767.348 361.419 770.863 357.035 772.791 351.219C773.95 347.718 774.797 344.097 775.538 340.477C781.248 312.726 793.82 288.438 812.66 267.415C823.962 254.8 837.076 244.399 852.429 237.013C859.321 233.697 866.243 230.44 873.152 227.153C877.386 225.14 881.635 223.155 885.847 221.099C894.148 217.051 901.384 211.568 907.825 204.961C912.703 199.955 916.748 194.421 919.505 187.975C921.154 184.117 922.938 180.315 924.533 176.435C931.219 160.151 941.489 146.429 954.223 134.414C976.397 113.498 1002.23 99.1482 1031.57 91.0308C1039.21 88.9135 1047.01 87.8263 1054.94 87.5608C1058.38 87.4445 1061.81 86.9067 1065.26 86.6693C1068.7 86.4299 1072.16 86.3854 1075.61 86.146C1079.32 85.8941 1081.55 88.087 1083.52 90.742C1084.51 92.0686 1084.11 94.4436 1082.58 95.3235C1080.67 96.4175 1078.64 97.3061 1076.58 98.1143C1071.07 100.282 1065.42 102.101 1060.03 104.524C1040.01 113.532 1022.32 125.941 1006.57 141.228C995.549 151.936 987.586 164.507 982.8 179.112C979.264 189.899 975.922 200.755 972.047 211.418C966.444 226.838 958.304 240.961 948.565 254.11C937.942 268.454 924.2 279.319 908.576 287.643C899.646 292.398 894.26 299.354 891.516 308.85C888.685 318.645 887.384 328.635 887.264 338.796C887.196 344.479 887.238 350.161 887.161 355.839C887.116 359.05 886.965 362.256 886.797 365.464C886.494 371.237 884.815 376.567 881.903 381.585C874.414 394.497 865.358 406.172 854.406 416.302C846.063 424.023 837.243 431.2 827.752 437.477C823.642 440.194 819.239 442.462 815.032 445.04C813.59 445.923 812.265 447.046 811.075 448.248C810.711 448.613 810.745 449.712 811.015 450.274C811.285 450.837 812.061 451.471 812.642 451.5C813.834 451.553 815.164 451.492 816.217 451.004C820.009 449.237 823.862 447.521 827.411 445.332C838.796 438.307 849.083 429.82 859 420.877C860.1 419.885 861.173 418.861 862.213 417.806C863.533 416.468 865.135 416.119 866.946 416.213C872.082 416.484 876.561 418.317 880.312 421.83C884.538 425.784 887.549 430.525 889.425 436.015C892.544 445.118 892.792 454.417 891.233 463.797C889.117 476.573 884.429 488.498 878.973 500.164C870.656 517.935 859.745 534.077 847.876 549.602C842.78 556.269 837.446 562.757 832.215 569.328C828.191 574.382 823.434 578.691 818.417 582.712C808.392 590.75 798.034 598.323 786.898 604.783C784.123 606.393 781.455 608.184 778.778 609.953C777.97 610.486 777.158 611.133 776.621 611.916C776.271 612.425 776.128 613.424 776.406 613.923C776.7 614.46 777.619 615.008 778.213 614.958C779.66 614.832 781.182 614.588 782.487 613.984C785.84 612.432 789.263 610.921 792.351 608.921C800.009 603.952 807.866 599.18 814.924 593.44C820.229 589.121 825.664 588.88 831.561 590.154C839.635 591.897 844.061 598.065 843.619 606.409C843.366 611.171 841.735 615.566 839.709 619.827C835.212 629.27 829.102 637.643 822.327 645.524C817.337 651.327 812.118 656.934 806.869 662.506C802.298 667.358 797.454 671.955 792.915 676.84C790.887 679.021 787.769 680.479 787.495 684.015C790.619 684.52 793.166 682.793 795.883 681.799C803.357 679.068 810.24 675.163 816.602 670.456C825.531 663.851 834.252 656.957 843.074 650.209C853.09 642.551 863.378 635.298 874.866 629.956C878.441 628.294 882.088 626.761 885.799 625.446C888.34 624.544 891.021 623.815 893.693 623.566C898.599 623.109 902.926 624.284 905.922 628.779C908.169 632.152 908.328 632.041 910.697 628.652C915.717 621.455 919.001 613.513 920.591 604.907C922.205 596.175 923.574 587.398 925.192 578.666C928.372 561.521 934.458 545.41 942.901 530.195C945.774 525.017 948.937 519.995 952.089 514.978C965.514 493.598 983.527 476.995 1005.47 464.724C1018.17 457.62 1031.2 451.096 1044.12 444.399C1059.02 436.68 1074.08 429.246 1088.87 421.334C1104.8 412.814 1119.68 402.647 1133.49 390.957C1135.92 388.89 1138.16 386.58 1140.46 384.367C1140.63 384.214 1140.8 383.88 1140.74 383.737C1140.66 383.561 1140.34 383.408 1140.11 383.397C1139.63 383.367 1139.13 383.363 1138.65 383.477C1132.32 385.01 1125.9 384.565 1119.49 384.296C1118.75 384.264 1118.01 384.195 1117.28 384.066C1103.7 381.652 1097.68 371.701 1098.78 360.5C1099.26 355.538 1100.7 350.847 1102.75 346.31C1107.11 336.667 1113.95 328.928 1121.5 321.727C1129.57 314.026 1138.47 307.382 1147.85 301.389C1158.04 294.874 1168.42 288.649 1178.54 282.025C1186.59 276.759 1194.57 271.34 1202.22 265.511C1211.28 258.606 1219.47 250.722 1225.93 241.214C1228.31 237.711 1230.19 234.005 1231.25 229.882C1237.6 205.15 1250.48 184.031 1267.36 165.205C1279.96 151.161 1294.43 139.258 1309.97 128.593C1325.46 117.955 1341.89 108.892 1358.31 99.8081C1372.77 91.806 1387.34 83.9503 1401.48 75.3988C1417.4 65.7668 1431.65 53.9507 1443.86 39.7993C1449.69 33.0424 1454.78 25.7681 1459.01 17.9123C1460.73 14.7049 1462.51 11.4781 1461.45 7.42961C1460.84 5.10496 1462.58 3.24155 1464.19 1.66982C1465.53 0.357785 1468.54 1.08746 1469.23 2.86752C1469.58 3.77064 1469.84 4.75902 1469.88 5.72318C1470.06 10.1651 1470.19 14.609 1470.28 19.0519C1470.48 28.3001 1468.55 37.182 1465.76 45.9419C1460.41 62.7706 1452.45 78.3232 1443 93.1723C1434.36 106.755 1424.4 119.308 1413.65 131.274C1398.3 148.385 1381.65 164.219 1364.98 180.027C1358.71 185.971 1352.64 192.116 1346.61 198.314C1336.39 208.843 1330.18 221.643 1326.17 235.598C1324.54 241.285 1323.11 247.038 1321.71 252.79C1316.33 274.852 1305.49 293.992 1290.89 311.203C1281.58 322.179 1271.31 332.076 1259.7 340.604C1256.07 343.269 1252.23 345.305 1247.84 346.427C1236.14 349.421 1224.52 352.796 1212.43 353.971C1211.01 354.11 1209.58 354.732 1208.28 355.378C1207.76 355.631 1207.3 356.565 1207.33 357.168C1207.36 357.782 1207.87 358.676 1208.4 358.916C1209.49 359.4 1210.73 359.668 1211.93 359.768C1217.92 360.271 1223.71 358.88 1229.5 357.667C1234.08 356.708 1238.6 355.45 1243.13 354.263C1245.19 353.728 1246.96 354.043 1248.72 355.275C1258.84 362.341 1264.67 371.974 1265.91 384.239C1267.25 397.56 1265.02 410.3 1259.24 422.418C1253.33 434.829 1245.08 445.548 1235.58 455.356C1227.3 463.894 1218.16 471.428 1208.56 478.413C1194.14 488.896 1178.8 497.84 1162.99 506.005C1152.46 511.44 1141.88 516.765 1131.44 522.367C1117.89 529.646 1105.23 538.211 1094.54 549.396C1091.31 552.78 1088.36 556.455 1085.44 560.11C1084.72 561.001 1084.58 562.341 1084.17 563.478C1083.98 563.614 1083.79 563.75 1083.6 563.886C1083.75 563.649 1083.89 563.454 1084.02 563.256Z" fill="#CEFD3B"/>
<path d="M1040.09 268.778C1037.38 268.761 1034.66 268.716 1031.95 268.733C1030.23 268.743 1028.45 268.627 1026.8 268.99C1025.74 269.222 1024.66 270.065 1023.95 270.934C1023.29 271.739 1024.82 273.463 1026.59 273.878C1033.38 275.462 1040.23 275.82 1047.17 275.169C1056.51 274.293 1065.78 273.006 1074.93 270.922C1076.53 270.556 1077.84 270.714 1079.07 271.697C1085.68 276.994 1090.65 283.391 1090.73 292.227C1090.77 296.346 1089.96 300.578 1088.9 304.588C1086.93 312.063 1083.02 318.671 1078.67 325.007C1071.46 335.512 1062.33 344.099 1052.14 351.646C1041.61 359.452 1030.4 366.155 1018.87 372.386C1004.77 380.014 990.673 387.66 976.645 395.435C972.334 397.825 968.283 400.671 964.106 403.299C946.487 414.39 934.857 430.229 927.501 449.458C926.708 451.529 926.018 453.645 925.142 455.678C924.538 457.077 922.918 457.794 921.463 457.561C920.013 457.328 918.706 456.126 918.685 454.543C918.626 450.352 918.331 446.1 918.874 441.972C920.068 432.931 921.221 423.831 923.285 414.964C928.994 390.416 939.983 368.658 958.449 351.033C970.62 339.414 984.667 331.028 1000.65 325.815C1003.46 324.899 1006.26 323.949 1009.03 322.891C1010.4 322.37 1011.79 321.744 1012.92 320.829C1013.52 320.34 1013.75 319.133 1013.71 318.27C1013.7 317.848 1012.66 317.099 1012.12 317.133C1009.45 317.293 1006.68 317.32 1004.13 318.044C999.866 319.246 995.739 320.917 991.574 322.438C989.723 323.114 987.854 323.79 986.091 324.66C984.085 325.649 982.322 325.292 980.482 324.309C969.118 318.251 962.76 309.044 962.124 295.969C961.317 279.439 967.581 265.614 978.089 253.414C987.544 242.436 999.082 234.033 1011.54 226.797C1023.76 219.71 1036.82 214.52 1049.84 209.208C1056.69 206.415 1063.53 203.597 1070.35 200.723C1079.02 197.069 1087.21 192.533 1094.85 187.022C1100.91 182.65 1106.13 177.449 1110.62 171.502C1116 164.403 1120.82 156.963 1125.04 149.107C1129.13 141.492 1133.45 134.014 1138.75 127.143C1148.84 114.033 1161.57 103.964 1175.66 95.5521C1186.69 88.9677 1198.02 82.987 1210.41 79.2728C1211.59 78.922 1212.74 78.3949 1213.93 78.2001C1216.78 77.735 1219.25 80.5839 1218.39 83.3911C1217.96 84.7806 1217.3 86.176 1216.44 87.3417C1214.69 89.7187 1212.83 92.0424 1210.81 94.211C1195.73 110.457 1183.63 128.693 1174.67 148.955C1171.59 155.934 1169.15 163.203 1166.49 170.373C1165.29 173.61 1164.33 176.932 1163.21 180.197C1155.63 202.184 1142.89 220.677 1125.35 235.857C1117.5 242.639 1109.46 249.186 1100.71 254.8C1096.1 257.752 1091.22 259.982 1085.95 261.491C1070.94 265.769 1055.76 268.811 1040.09 268.778ZM574.003 417.605C573.175 417.443 572.695 417.358 572.218 417.252C570.784 416.931 569.85 414.896 570.729 413.735C571.45 412.781 572.309 411.809 573.324 411.237C574.59 410.523 576.047 409.956 577.481 409.758C583.337 408.958 587.215 405.257 590.696 400.983C597.106 393.126 602.621 384.631 607.583 375.821C613.266 365.729 618.573 355.421 623.999 345.183C631.403 331.215 639.615 317.77 649.145 305.128C665.415 283.544 685.21 266.033 708.919 253.02C715.183 249.582 721.48 246.174 727.936 243.119C734.464 240.029 740.383 236.127 745.807 231.403C746.919 230.438 748.061 229.489 749.284 228.675C750.583 227.809 752.573 228.054 753.231 229.326C753.745 230.315 753.937 231.649 753.768 232.754C753.636 233.623 752.843 234.485 752.154 235.164C748.661 238.621 745.223 242.053 741.081 244.878C731.834 251.184 724.133 259.22 717.857 268.482C714.122 273.989 710.707 279.708 707.632 285.611C701.947 296.547 696.553 307.635 691.172 318.727C682.962 335.655 673.233 351.622 661.514 366.355C651.763 378.611 640.355 389.07 627.393 397.839C620.62 402.422 613.403 406.2 605.659 408.781C597.49 411.505 589.196 413.864 580.924 416.264C578.567 416.944 576.096 417.209 574.003 417.605ZM-22.4302 767.273H1421.01V909.713H-22.4302V767.273Z" fill="#CEFD3B"/>
</svg>
