<svg width="48" height="32" viewBox="0 0 48 32" fill="none" xmlns="http://www.w3.org/2000/svg">
<g clip-path="url(#clip0_1_295)">
<path d="M39.7563 22.4445C39.6254 22.3693 39.4936 22.2951 39.3637 22.2178C38.8941 21.9262 38.3925 21.6894 37.8688 21.5121C37.6325 21.4314 37.4007 21.3382 37.1744 21.2329C36.9868 21.1494 36.788 21.0979 36.5922 21.0371C35.8195 20.8022 35.0066 20.7249 34.2215 20.5446C34.1865 20.5364 34.1514 20.5271 34.1154 20.5261C34.0659 20.524 34.0196 20.5508 34.0051 20.6003C33.9731 20.711 33.9476 20.8235 33.9289 20.9372C33.9237 20.965 33.9516 21.0093 33.9763 21.0258C34.0721 21.0907 34.1751 21.1391 34.2936 21.1597C34.6831 21.2298 35.0705 21.305 35.4579 21.3802C35.6258 21.4122 35.7927 21.4462 35.9596 21.4832C36.0204 21.4966 36.0822 21.5131 36.1368 21.5409C36.2656 21.6069 36.4016 21.6419 36.549 21.6532C36.6365 21.6605 36.7272 21.6842 36.8065 21.7212C37.2568 21.9376 37.7328 22.0922 38.1985 22.2714C38.3067 22.3126 38.4107 22.3642 38.5107 22.4218C38.966 22.6835 39.4194 22.9494 39.8737 23.2152C40.0427 23.3131 40.2107 23.414 40.3786 23.5129C40.734 23.7211 41.1173 23.8663 41.516 23.9735C41.991 24.1012 42.4639 24.2352 42.9399 24.3629C43.2171 24.4371 43.4994 24.4917 43.792 24.4928C44.2216 24.4948 44.6368 24.5669 45.0541 24.6391C45.3632 24.6926 45.6774 24.7318 45.9896 24.7761L47.2188 24.9512C47.3259 24.9667 47.4331 24.9811 47.5402 24.9925C47.7772 25.0192 48.0121 24.9852 48.246 24.9008C48.3497 24.8605 48.4575 24.8315 48.5674 24.8142C48.7498 24.7905 48.8848 24.7071 48.9538 24.5206C48.9806 24.4464 49.029 24.4114 49.1001 24.4052C49.4113 24.3805 49.7214 24.3557 50.0222 24.433C50.117 24.4577 50.2149 24.4742 50.3117 24.4928C50.4577 24.5245 50.6103 24.5014 50.7403 24.4278C51.0546 24.2496 51.3791 24.228 51.7068 24.264C52.3456 24.3362 52.9699 24.4598 53.586 24.6195C54.0888 24.7493 54.5854 24.9038 55.0944 25.0089C55.692 25.1326 56.2762 25.3026 56.8665 25.452C57.4013 25.588 57.9453 25.6395 58.5068 25.5921C58.8993 25.5581 59.2919 25.5344 59.6844 25.4891C60.2325 25.4231 60.7796 25.4087 61.3267 25.384C62.0304 25.3531 62.7331 25.2974 63.4347 25.1697C63.4883 25.1594 63.546 25.1491 63.5975 25.1563C63.6253 25.1604 63.649 25.1995 63.6665 25.2284C63.6707 25.2377 63.6439 25.2809 63.6253 25.2871C63.3121 25.3943 63.0277 25.5715 62.7434 25.7477C62.4023 25.9589 62.0603 26.1691 61.7203 26.3823C61.6317 26.438 61.541 26.4946 61.4627 26.5647C61.397 26.6214 61.3416 26.689 61.2989 26.7646C61.201 26.9469 61.3082 27.119 61.5039 27.0994C61.5681 27.0912 61.6307 27.0731 61.6894 27.0458C61.7584 27.0149 61.8233 26.9727 61.8882 26.9325C62.3189 26.6667 62.7516 26.404 63.1802 26.133C63.5171 25.9208 63.8736 25.7827 64.2497 25.7095C64.3218 25.6951 64.3939 25.6766 64.4671 25.6663C65.2079 25.5571 65.8394 25.182 66.4061 24.6597C66.5345 24.5317 66.6882 24.432 66.8574 24.3671C66.9682 24.3334 67.0655 24.2656 67.1356 24.1734C67.1976 24.0871 67.2914 24.0289 67.3962 24.0116C67.5178 23.991 67.6157 24.0415 67.6507 24.1589C67.6718 24.2324 67.6778 24.3093 67.6682 24.3851C67.6586 24.4609 67.6338 24.534 67.5951 24.5999C67.4447 24.8616 67.3087 25.1326 67.1232 25.3747C66.9759 25.5684 66.843 25.7734 66.6977 25.9692C66.4288 26.3349 66.1001 26.6327 65.7374 26.8903C65.3927 27.1311 65.0312 27.347 64.6556 27.5363C64.4197 27.6568 64.1848 27.7825 63.9509 27.9072C63.8239 27.9768 63.7085 28.0658 63.6088 28.1709C63.4863 28.2947 63.3602 28.415 63.2307 28.5315C63.1052 28.6505 62.9624 28.7499 62.8073 28.8262C62.731 28.8623 62.661 28.9148 62.5909 28.9653C62.4188 29.0879 62.253 29.2208 62.0778 29.3372C61.8048 29.5186 61.5163 29.6566 61.2041 29.7288C61.0702 29.7597 60.9331 29.805 60.8064 29.8658C60.6507 29.9488 60.4759 29.9893 60.2995 29.9832C60.1984 29.9763 60.0969 29.9893 60.0007 30.0214C59.3506 30.2542 58.685 30.3449 58.0184 30.418C57.6527 30.4592 57.2869 30.4716 56.9232 30.5035C56.6131 30.5303 56.3019 30.5633 55.9918 30.5973C55.59 30.6416 55.1892 30.69 54.7874 30.7374C54.7328 30.7436 54.6802 30.7477 54.6339 30.7931C54.47 30.9497 54.2702 30.9919 54.0672 31.0218C53.769 31.0638 53.4674 31.0769 53.1667 31.0609C53.0026 31.0479 52.8374 31.0587 52.6763 31.0929C52.5973 31.1153 52.5147 31.1215 52.4332 31.1112C52.3518 31.101 52.2733 31.0744 52.2024 31.0331C52.1405 30.995 52.0859 31.0002 52.0231 31.0228C51.953 31.0486 51.8819 31.0723 51.8108 31.0991C51.545 31.1969 51.2751 31.2588 50.999 31.2794C50.8444 31.2917 50.6899 31.3175 50.5343 31.3381C50.2767 31.3711 50.0284 31.3566 49.776 31.3113C48.9615 31.1651 48.1451 31.0298 47.327 30.9054C46.4007 30.7663 45.4693 30.6529 44.5451 30.5097C44.0755 30.4318 43.6091 30.3356 43.147 30.2212C42.5288 30.0749 41.9137 29.9122 41.3162 29.6999C40.9633 29.5745 40.6126 29.443 40.2642 29.3053C40.1319 29.2517 40.0053 29.1851 39.8861 29.1065C39.5873 28.9128 39.2885 28.718 39 28.5089C38.7682 28.342 38.5828 28.1194 38.4076 27.8907C38.3131 27.7697 38.222 27.646 38.1346 27.5198C37.8028 27.0355 37.368 26.6708 36.8828 26.3638C36.5809 26.1722 36.2512 26.0362 35.9246 25.895C35.7185 25.8074 35.5084 25.7332 35.3013 25.6518C35.1949 25.6025 35.0785 25.5785 34.9613 25.5818C34.9083 25.5827 34.857 25.6001 34.8144 25.6315C34.7717 25.6628 34.7399 25.7067 34.7233 25.7569C34.7045 25.8004 34.7001 25.8487 34.7106 25.8948C34.7212 25.941 34.7462 25.9825 34.782 26.0135C34.8541 26.0774 34.9365 26.1351 35.0251 26.1742C35.2446 26.2721 35.4682 26.3597 35.6928 26.4483C36.244 26.6657 36.755 26.949 37.1991 27.3446C37.2856 27.4219 37.3639 27.5095 37.4412 27.596C37.4711 27.628 37.4927 27.6682 37.5164 27.7052C37.4639 27.7526 37.4134 27.7279 37.3619 27.7125C37.0631 27.6166 36.7437 27.5991 36.4336 27.5517C35.9977 27.4837 35.5619 27.4198 35.1251 27.3529C34.8869 27.3112 34.6533 27.2467 34.4276 27.1602C33.8485 26.9542 33.2674 26.7481 32.6905 26.5338C32.3484 26.4071 32.0105 26.268 31.6736 26.1258C31.2388 25.9424 30.8071 25.7518 30.3754 25.5622C30.1786 25.4767 29.9839 25.3891 29.7902 25.2985C29.4759 25.1501 29.1637 24.9976 28.8495 24.8492C28.5682 24.7174 28.2828 24.5896 28.0005 24.4588C27.7254 24.332 27.4503 24.2063 27.1783 24.0745C26.929 23.9549 26.6848 23.8272 26.4365 23.7056C25.9873 23.4892 25.5402 23.2677 25.0868 23.0606C24.758 22.9014 24.4515 22.6998 24.175 22.461C23.5072 21.9098 22.8637 21.3299 22.2463 20.7229C22.0742 20.5539 21.8877 20.4014 21.7085 20.2407C21.6971 20.2304 21.692 20.2118 21.6837 20.1974L21.759 20.1675C21.7672 20.1645 21.7775 20.1675 21.7857 20.1696C22.0948 20.2273 22.4019 20.2984 22.6924 20.4138C23.1643 20.6013 23.6238 20.8187 24.0607 21.0773C24.513 21.3452 24.9756 21.5945 25.4619 21.7954C25.9667 22.0025 26.4963 22.1354 27.0393 22.223C27.1208 22.2324 27.2033 22.2282 27.2834 22.2106C27.3391 22.1983 27.391 22.1729 27.4349 22.1365C27.5534 22.0417 27.5688 21.8892 27.472 21.7882C27.4359 21.749 27.3911 21.719 27.3411 21.7006C27.2484 21.6697 27.1516 21.6512 27.0547 21.6306C26.6591 21.5502 26.2645 21.4626 25.8905 21.3163C25.5144 21.1763 25.1493 21.0082 24.7983 20.8135C24.5665 20.6817 24.3388 20.5405 24.1029 20.4158C23.6393 20.1706 23.1694 19.9368 22.6646 19.7771C22.2278 19.636 21.7744 19.5528 21.3159 19.5298C21.0717 19.5185 20.8265 19.5112 20.5823 19.5009C20.4917 19.4978 20.4 19.4968 20.3103 19.4855C20.2135 19.4731 20.1167 19.4587 20.0445 19.3763C19.9807 19.3042 19.89 19.2846 19.7952 19.3196C19.6994 19.3546 19.6128 19.332 19.5283 19.3072C19.0745 19.1742 18.6281 19.017 18.191 18.8364C17.7964 18.6715 17.4008 18.5098 17.0185 18.3182C16.8985 18.2601 16.7813 18.1965 16.6672 18.1275C16.4096 17.9668 16.1572 17.7999 15.9048 17.6351C15.6312 17.4649 15.3841 17.2556 15.1712 17.0138C15.0733 16.8984 14.9909 16.7665 14.9033 16.6418C14.8776 16.6048 14.8611 16.5594 14.8343 16.5244C14.7972 16.4749 14.7261 16.4348 14.721 16.3812C14.7158 16.3018 14.7519 16.2143 14.7776 16.1318C14.8013 16.0587 14.8353 15.9876 14.8652 15.9155C14.9641 15.6806 15.0342 15.4395 15.0507 15.1881C15.0579 15.0923 15.0682 14.9965 15.0692 14.9017C15.0774 14.4803 15.1444 14.064 15.232 13.6457C15.3144 13.246 15.4319 12.8627 15.6019 12.4866C15.9336 11.752 16.4467 11.2606 17.205 11.0803C17.5914 10.9875 17.9695 10.9669 18.3301 11.1174C18.396 11.1452 18.4682 11.1555 18.5351 11.1802C18.7742 11.2698 19.0235 11.2853 19.2831 11.2544C19.7138 11.2029 20.1414 11.1895 20.5638 11.2472C21.0099 11.309 21.455 11.378 21.8795 11.5212C22.0577 11.58 22.2298 11.6552 22.406 11.717C22.4891 11.7499 22.5766 11.7708 22.6656 11.7788C22.8346 11.786 22.9417 11.614 22.8645 11.4605C22.7794 11.3007 22.6408 11.1759 22.473 11.1081C22.153 10.9689 21.8185 10.8659 21.4756 10.8011C21.3087 10.7671 21.1397 10.7392 20.9718 10.7083C20.4342 10.6143 19.8857 10.6 19.3439 10.6661C19.1111 10.6939 18.8885 10.6867 18.6773 10.6002C18.6443 10.5857 18.6052 10.5857 18.5743 10.5723C18.056 10.3529 17.5162 10.4023 16.966 10.5507C16.9031 10.5672 16.8413 10.5909 16.7774 10.6043C16.7548 10.6084 16.7177 10.6012 16.7331 10.561C16.7929 10.4065 16.8568 10.2529 16.9825 10.1375C17.067 10.0582 17.1483 9.9727 17.24 9.9047C17.442 9.7553 17.6357 9.59561 17.8129 9.41633C17.8793 9.34766 17.9647 9.30032 18.0581 9.28033C18.2951 9.22779 18.5135 9.12373 18.733 9.00215C18.9297 8.89191 19.1502 8.83112 19.3635 8.76518C19.4397 8.74045 19.5273 8.75385 19.6067 8.76518C19.7313 8.78167 19.856 8.80433 19.9776 8.83524C20.4196 8.94858 20.8636 9.05882 21.3005 9.18555C21.5838 9.26797 21.861 9.36791 22.135 9.47403C22.8748 9.76148 23.6166 10.0438 24.3759 10.2808C24.6397 10.3632 24.9086 10.4353 25.1744 10.5126C25.5433 10.6218 25.8977 10.7681 26.2408 10.9402C26.6859 11.1648 27.1268 11.3945 27.5534 11.6552C28.0098 11.9334 28.3725 12.3105 28.6661 12.7638C28.8196 12.9987 28.969 13.2377 29.1297 13.4644C29.445 13.9095 29.8231 14.2907 30.2198 14.6513C30.3115 14.7337 30.4217 14.7976 30.5279 14.8625C30.6051 14.9099 30.6927 14.9264 30.7885 14.9078C30.9462 14.878 31.0482 14.6966 30.9719 14.5575C30.9239 14.4713 30.8582 14.3962 30.7793 14.3371C30.5351 14.1547 30.3249 13.9352 30.1116 13.7189C29.8544 13.4542 29.6232 13.1655 29.4213 12.8565C29.397 12.8184 29.3756 12.7784 29.3574 12.737C29.3533 12.7298 29.3708 12.6999 29.378 12.6999C29.4502 12.6999 29.5223 12.6999 29.5944 12.7061C30.0951 12.7566 30.5885 12.8627 31.0657 13.0224C31.3109 13.1028 31.554 13.1934 31.7766 13.3263C32.0826 13.5087 32.3948 13.6818 32.6936 13.8745C32.9336 14.0269 33.1562 14.2083 33.3921 14.3659C33.7836 14.6297 34.1648 14.9078 34.58 15.1355C34.6027 15.1479 34.6254 15.1654 34.6511 15.1716C34.8974 15.2355 35.1004 15.3849 35.3208 15.4992C35.4785 15.5817 35.6402 15.6558 35.7989 15.7372C36.0997 15.8928 36.3913 16.0608 36.6674 16.2596C37.1156 16.5821 37.5442 16.9303 37.9708 17.2827C38.3623 17.6062 38.7517 17.9338 39.1587 18.2368C39.509 18.4974 39.8758 18.7334 40.2436 18.9683C41.0267 19.4659 41.7633 20.0233 42.4011 20.7105C42.774 21.1123 43.1862 21.4678 43.6045 21.816C43.7817 21.9634 43.9743 22.0942 44.165 22.224C44.4019 22.3837 44.6389 22.5434 44.8851 22.6856C45.1551 22.8401 45.4312 22.9844 45.7135 23.1163C46.4399 23.4583 47.1147 23.8921 47.8225 24.2702C47.8534 24.2867 47.8843 24.3052 47.9132 24.3258C47.9266 24.3362 47.9348 24.3537 47.9462 24.3671C47.9225 24.3815 47.8977 24.4062 47.874 24.4062C47.7483 24.4072 47.6185 24.4145 47.4949 24.398C47.1734 24.3547 46.8551 24.3001 46.5347 24.2496C46.4553 24.2372 46.376 24.2166 46.2946 24.2125C45.833 24.1847 45.3828 24.1002 44.9315 24.0178C44.6034 23.9543 44.2704 23.9198 43.9362 23.9148C43.6833 23.9132 43.4315 23.8793 43.1872 23.8138C42.6082 23.6592 42.0312 23.4985 41.4553 23.3347C41.1973 23.2613 40.9495 23.1561 40.7176 23.0215L39.746 22.461C39.7501 22.4569 39.7532 22.4507 39.7563 22.4445Z" fill="black"/>
<path d="M7.80454 8.78897C7.94466 8.85079 8.12806 8.94352 8.31969 9.01358C8.6123 9.12176 8.90903 9.21964 9.20781 9.31237C9.49939 9.40303 9.80333 9.44012 10.1145 9.436C10.2598 9.436 10.4061 9.43291 10.5513 9.42364C10.9946 9.39171 11.4402 9.41908 11.8763 9.50503C11.9299 9.51534 11.9845 9.51946 12.036 9.53388C12.1184 9.55655 12.1957 9.53594 12.274 9.49267C12.4162 9.4154 12.5604 9.34534 12.7036 9.27115C12.8201 9.21057 12.9477 9.17446 13.0787 9.16503C13.2971 9.14958 13.5165 9.12897 13.735 9.12382C13.9544 9.11867 14.1687 9.09394 14.3871 9.02903C14.6272 8.95691 14.8745 8.91879 15.1187 8.87037C15.301 8.83327 15.4782 8.77764 15.6524 8.70243C16.0219 8.54676 16.4113 8.44342 16.8094 8.3954C17.0845 8.35831 17.3544 8.3954 17.6192 8.44691C17.7377 8.46958 17.7665 8.56437 17.7016 8.68388C17.6131 8.84664 17.4839 8.98366 17.3266 9.08158C16.9485 9.31855 16.6394 9.63794 16.3561 9.98618C16.2873 10.0687 16.2326 10.162 16.1943 10.2623C16.1123 10.4715 15.9858 10.6603 15.8234 10.8156C15.7358 10.9062 15.6462 10.9959 15.5617 11.0896C15.4934 11.1702 15.4092 11.2358 15.3144 11.2823C15.1764 11.3462 15.0981 11.4523 15.0599 11.612C15.0115 11.8078 14.9456 12.0035 14.859 12.189C14.6839 12.564 14.587 12.9565 14.5201 13.3573C14.4768 13.6139 14.4428 13.8715 14.3985 14.127C14.3053 14.7006 14.1633 15.2652 13.974 15.8146C13.9328 15.9321 13.8741 16.0475 13.8091 16.1567C13.6804 16.373 13.3785 16.4307 13.2157 16.2659C13.142 16.187 13.0787 16.099 13.0271 16.0042C12.9859 15.9322 12.9557 15.8544 12.9375 15.7734C12.8654 15.4571 12.7088 15.1954 12.5223 14.9492C12.3544 14.7256 12.2081 14.4855 12.0381 14.263C11.8402 14.0064 11.627 13.7643 11.423 13.5139C11.2236 13.2707 11.0258 13.0261 10.8295 12.7804C10.7237 12.6517 10.6581 12.4948 10.641 12.3291C10.6348 12.2673 10.6049 12.2261 10.5482 12.2065C10.0959 12.0431 9.65255 11.8557 9.22018 11.645C8.71224 11.408 8.21048 11.1576 7.72624 10.8753C7.39654 10.6837 7.08848 10.4539 6.77527 10.2355C6.44007 9.99947 6.11909 9.74386 5.81399 9.47C5.37883 9.0811 4.98865 8.64461 4.65078 8.16873C4.48284 7.93382 4.32109 7.69376 4.17066 7.44649C3.78339 6.80075 3.55001 6.07452 3.4886 5.32406C3.43215 4.81042 3.45298 4.29122 3.55042 3.78376C3.60709 3.5097 3.66993 3.23564 3.73793 2.96364C3.76236 2.88179 3.76765 2.79543 3.75339 2.71121C3.70239 2.43395 3.75599 2.14763 3.90381 1.90758C4.00169 1.73861 4.11193 1.57582 4.23351 1.42437C4.39733 1.22037 4.62399 1.17709 4.82593 1.29764C4.89393 1.33885 4.95987 1.39037 5.0083 1.45218C5.1546 1.63352 5.29884 1.81897 5.43072 2.01267C5.61824 2.28776 5.61721 2.60303 5.41218 2.88843C5.32623 3.01756 5.25862 3.15799 5.21127 3.3057C5.1783 3.39637 5.15975 3.49218 5.13193 3.58594C5.08557 3.7477 5.05981 3.89709 5.16696 4.04237C5.21539 4.10728 5.21436 4.21855 5.2226 4.31128C5.22981 4.39473 5.22054 4.48231 5.21848 4.56885C5.20053 5.17868 5.32802 5.78401 5.59042 6.33479C5.71509 6.59855 5.85109 6.85715 5.99636 7.10958C6.25703 7.56291 6.60218 7.93897 7.01533 8.24188C7.25951 8.42115 7.51193 8.58703 7.80454 8.78897Z" fill="black"/>
</g>
<defs>
<clipPath id="clip0_1_295">
<rect width="68" height="31" fill="white" transform="translate(0 0.6875)"/>
</clipPath>
</defs>
</svg>
